<svg width="22" height="22" viewBox="0 0 22 22" fill="none" xmlns="http://www.w3.org/2000/svg">
<path d="M18.9961 13H15.9961L15.9961 1H18.9961C19.5265 1 20.0353 1.21068 20.4104 1.58575C20.7855 1.96083 20.9961 2.46957 20.9961 3V11C20.9961 11.5304 20.7855 12.0391 20.4104 12.4142C20.0353 12.7893 19.5265 13 18.9961 13Z" stroke="#E04A4D" stroke-width="2" stroke-linejoin="round"/>
<path d="M15.9961 12.9897L13.4161 19.8298C13.2937 20.1713 13.0684 20.4664 12.771 20.6743C12.4736 20.8821 12.1189 20.9923 11.7561 20.9897C11.2894 20.9897 10.8416 20.8044 10.5115 20.4743C10.1814 20.1442 9.99613 19.6966 9.99613 19.2298V12.9897H2.99613C2.69035 12.9892 2.38872 12.9185 2.11454 12.7831C1.84036 12.6477 1.60098 12.4513 1.41459 12.2089C1.2282 11.9665 1.09974 11.6846 1.03935 11.3848C0.978949 11.0851 0.988227 10.7755 1.0662 10.4798L2.99613 2.4798C3.11183 2.05878 3.3621 1.68718 3.70878 1.42175C4.05546 1.15632 4.47944 1.01162 4.91606 1.00977H15.9961" stroke="#E04A4D" stroke-width="2" stroke-linejoin="round"/>
</svg>
