<svg width="23" height="22" viewBox="0 0 23 22" fill="none" xmlns="http://www.w3.org/2000/svg">
<path d="M3 9.00977H6V21.0098H3C2.46957 21.0098 1.96086 20.7991 1.58578 20.424C1.21071 20.0489 1 19.5402 1 19.0098V11.0098C1 10.4793 1.21071 9.97063 1.58578 9.59556C1.96086 9.22049 2.46957 9.00977 3 9.00977Z" stroke="#44475C" stroke-width="2" stroke-linejoin="round"/>
<path d="M6.04004 9L8.62012 2.17004C8.74328 1.82823 8.96865 1.53256 9.26562 1.32324C9.5626 1.11393 9.9167 1.00107 10.28 1V1C10.7468 1 11.1944 1.18544 11.5244 1.5155C11.8545 1.84557 12.04 2.29323 12.04 2.76001V9H19.04C19.3469 9.00019 19.6497 9.07103 19.9248 9.20697C20.1999 9.34291 20.4401 9.5403 20.6267 9.78394C20.8133 10.0276 20.9412 10.3109 21.0007 10.6119C21.0603 10.913 21.0498 11.2237 20.97 11.52L19.05 19.52C18.9339 19.9427 18.682 20.3155 18.3333 20.5811C17.9845 20.8466 17.5585 20.9904 17.1201 20.9901H6.04004" stroke="#44475C" stroke-width="2" stroke-linejoin="round"/>
</svg>
